<?xml version="1.0" encoding="UTF-8"?>
<svg enable-background="new 0 0 122.092 431.883" viewBox="0 0 122.092 431.883" xmlns="http://www.w3.org/2000/svg">
 <path d="m55.198 269.76-0.515-31.393-4.117-7.205 0.515-29.333 4.632-8.234-2.573-7.205-0.515-4.117 2.059-20.071 4.544-17.725 16.041-8.007 28.307-0.515 7.205 11.322s13.896-11.322 10.808-38.598-15.944-41.56-15.944-41.56l-6.877-1.146s7.383-19.051-4.455-39.122-25.734-25.218-33.968-25.218-24.189 1.544-33.452 8.749-14.08 12.614-14.08 12.614l1.729 13.118 27.791-0.515 12.866 2.573 11.321 1.544-1.543 18.012-30.365 13.896-18.361 46.493-12.034 2.292-0.483 23.779 16.468 1.544 0.633 89.28-2.691 6.957-0.515 33.453 37.569-5.662z" fill="#eff0f0"/>
 <path d="m76.418,17.263c-.336,12.42-35.112,11.297-35.527,0-.476-12.94 34.169-12.271 35.527,0zm-33.808-1.719c-2.833,14.178 38.886,11.495 29.797-1.719-4.726-6.871-28.333-5.611-29.797,1.719z"/>
 <path d="m67.25,12.679h-3.438c-.076,4.894 1.008,7.677 0,9.741-2.845-1.185-.015-7.688-1.146-9.168-.156-1.181-2.538-.137-2.293-1.719-3.779,3.329-.966,7.509.573,11.46-3.208.151-1.771-4.341-4.011-5.157-1.343,1.141-.825,4.142-2.292,5.157-.949-2.499 2.021-9.622-.573-12.034 2.465-.555 1.587,2.233 2.865,2.865 .455-3.925 8.248-4.47 10.315-1.145z"/>
 <path d="m52.924,12.679h-2.292c-.623,2.342.612,2.826 1.72,3.438 .513,1.85-1.869.805-2.293,1.719-.236,2.614 1.18,2.337 2.293,4.584-1.753.416-1.686-.989-3.438-.573-.1-4.615.367-6.395 0-10.314 1.33-.417 4.28-1.451 4.01,1.146z"/>
 <path d="m70.688,21.274c-5.375.911-4.524-6.625-2.293-8.595 5.536-1.304 5.842,7.358 2.293,8.595zm-1.718-1.146c2.643-.219 3.229-3.591 2.291-5.73-4.026-1.127-4.214,4.283-2.291,5.73z"/>
 <path d="m71.261,14.398c.938,2.139.352,5.511-2.291,5.73-1.923-1.447-1.735-6.857 2.291-5.73z" fill="#eff0f0"/>
 <path d="m70.115 65.397c7.618-7.279 13.704-16.092 22.348-22.348-6.946 7.953-13.284 16.513-22.348 22.348z" fill="#eff0f0"/>
 <path d="m72.979 65.97c6.838-7.87 13.641-15.775 21.774-22.348-6.684 8.023-13.49 15.923-21.774 22.348z" fill="#eff0f0"/>
 <path d="m101.06 70.554c1.73 1.218-1.641 2.134-1.719 3.438-1.731-1.218 1.64-2.133 1.719-3.438z"/>
 <path d="m23.127 85.453c-1.566-1.236 1.342-2.822 1.719-4.011 1.92 1.589-1.484 2.68-1.719 4.011z" fill="#eff0f0"/>
 <path d="m23.127,88.318c-.748-2.671 2.673-6.104 5.73-6.876-1.156,3.045-4.143,4.261-5.73,6.876z" fill="#eff0f0"/>
 <path d="m23.127 91.756c-1.554-3.274 4.743-7.589 8.022-9.742-1.738 4.183-6.261 5.582-8.022 9.742z" fill="#eff0f0"/>
 <path d="m22.554 94.048c2.428-4.643 7.376-9.811 10.888-11.46-2.922 4.528-6.971 7.928-10.888 11.46z" fill="#eff0f0"/>
 <path d="m20.262,87.172c2.426,7.625-1.271,21.25.573,28.651 .271,1.088.411,1.193 1.719,1.146-1.398,1.084-3.736,1.23-6.303,1.146 5.402-9.389 2.931-19.082 4.011-30.943z" fill="#eff0f0"/>
 <path d="m34.587,91.183c.666-.093 1.02.126 1.146.573-4.031,4.783-8.838,11.752-13.752,13.752 3.333-5.643 9.217-8.737 12.606-14.325z" fill="#eff0f0"/>
 <path d="m22.554 108.37c3.259-5.719 8.575-9.38 12.607-14.326-1.294 5.015-9.219 11.406-12.607 14.326z" fill="#eff0f0"/>
 <path d="m75.272,98.06c-1.1-.484-1.551-2.514-.573-3.438 1.572.011 1.361,2.703.573,3.438z"/>
 <path d="m86.731,94.621c1.459.059 1.354,2.136.574,2.865-.993-.521-1.481-2.007-.574-2.865z"/>
 <path d="m71.261,95.194c1.984-.402 2.057,2.009 1.146,2.865-1.254-.084-1.23-1.443-1.146-2.865z"/>
 <path d="m80.431,95.194c.924-.162.985.542 1.719.573 .072,1.027-.701,1.208-.573,2.292-1.256-.084-1.232-1.443-1.146-2.865z"/>
 <path d="m34.587,96.914c2.724,7.915-8.292,11.929-11.46,17.764 3.779-1.574 7.881-7.778 11.46-11.46 .132,4.438-7.062,10.165-12.034,13.179-.819-11.326 9.031-11.982 12.034-19.483zm-10.887,15.471c2.911-4.351 9.184-8.384 10.314-12.606-2.735,4.526-9.221,8.346-10.314,12.606z" fill="#eff0f0"/>
 <path d="m88.451,96.914c1.418.803 1.012,1.974.573,3.438-1.889-.331-.821-2.164-.573-3.438z"/>
 <path d="m92.463,99.778c-1.983.402-2.056-2.009-1.146-2.865 1.252.085 1.23,1.444 1.146,2.865z"/>
 <path d="m95.328,99.778c-1.704.122-2.021-2.043-1.146-2.865 1.253.085 1.23,1.444 1.146,2.865z"/>
 <path d="m83.294,100.352c-2.066.099-2.066-2.964 0-2.865v2.865z"/>
 <path d="m85.015,97.486c.924-.161.985.542 1.719.573 .072,1.028-.701,1.208-.573,2.292-1.133-.452-2.06-2.003-1.146-2.865z"/>
 <path d="m81.002,99.778c1.417.804 1.013,1.975.573,3.438-1.097-.484-1.551-2.513-.573-3.438z"/>
 <path d="m83.867,99.778c1.458.059 1.354,2.135.573,2.865-1.459-.058-1.353-2.135-.573-2.865z"/>
 <path d="m86.731,99.778c1.645.325 2.336,2.696 0,2.865v-2.865z"/>
 <path d="m89.599,99.778c.926-.161.985.542 1.719.573 .072,1.028-.701,1.208-.573,2.292-1.254-.083-1.23-1.443-1.146-2.865z"/>
 <path d="m94.183,102.071c.926-.162.985.542 1.719.573 .474,1.62-.809,1.484-.572,2.865-1.513-.755-1.759-1.882-1.147-3.438z"/>
 <path d="m73.554,102.644c1.416.804 1.012,1.974.572,3.438-1.57-.012-1.361-2.704-.572-3.438z"/>
 <path d="m82.147,102.644c2.349.351 1.147,1.574 1.146,3.438-1.463-.064-1.136-1.919-1.146-3.438z"/>
 <path d="m85.587,102.644c1.796.396.747,1.528.572,2.865-1.458-.058-1.353-2.135-.572-2.865z"/>
 <path d="m88.451,102.644c2.065-.548 1.017,2.474.573,2.865-.996-.522-1.481-2.008-.573-2.865z"/>
 <path d="m94.183,104.936c.183,1.329-.093,2.2-.574,2.865-1.247-.508-1.751-3.199.574-2.865z"/>
 <path d="m97.047,107.801c-1.926.588-.892-1.782-1.146-2.865 2.303-.082 1.516,1.469 1.146,2.865z"/>
 <path d="m77.563,105.509c.926-.162.986.542 1.72.573 .073,1.027-.701,1.208-.573,2.292-1.253-.084-1.231-1.444-1.147-2.865z"/>
 <path d="m86.731,105.509c.927-.162.986.542 1.72.573 .073,1.027-.701,1.208-.572,2.292-1.253-.084-1.232-1.444-1.148-2.865z"/>
 <path d="m34.015 106.66c-0.089 4.886-4.335 7.967-8.596 9.741 2.606-3.506 6.321-5.904 8.596-9.741z" fill="#eff0f0"/>
 <path d="m91.89,107.228c1.418.804 1.012,1.975.573,3.438-1.569-.012-1.36-2.703-.573-3.438z"/>
 <path d="m95.328,110.666c-1.89-.331-.822-2.164-.573-3.438 1.891.331.821,2.164.573,3.438z"/>
 <path d="m74.699,110.666c-2.304.083-1.517-1.47-1.146-2.865 1.253.084 1.23,1.444 1.146,2.865z"/>
 <path d="m79.283,107.801c2.022.197 1.481,1.504 1.146,2.865-1.485-.737-1.8-1.185-1.146-2.865z"/>
 <path d="m88.451,107.801c2.022.197 1.481,1.504 1.146,2.865-2.023-.198-1.481-1.504-1.146-2.865z"/>
 <path d="m77.563,108.374c.955,1.139-.051.729 0,2.292-2.207.451-2.207-2.744 0-2.292z"/>
 <path d="m93.036,112.958c-.184-1.329.092-2.2.572-2.865 1.705.05 1.534,3.417-.572,2.865z"/>
 <path d="m44.329 129c2.337-0.208 0.375 3.314-1.146 2.865-0.83-2.167 1.574-1.1 1.146-2.865z"/>
 <path d="m4.217,135.306c1.154,1.382-1.267,7.102.573,9.168-2.298.318-1.526-6.687-.573-9.168z" fill="#eff0f0"/>
 <path d="m43.183,138.744c.667-.093 1.02.126 1.146.573 .843,10.982.521,31.928.573,48.707-2.402-17.387-.75-37.049-1.719-49.28z"/>
 <path d="m64.385,146.193h1.72c-.457,1.071-.957,2.099-1.146,3.438-1.267-.071-.245-2.43-.574-3.438z" fill="#eff0f0"/>
 <path d="m30.003,186.305c-2.436.11-.652-3.591-.573-4.584 2.504,2.08 11.05-1.881 10.888,2.865-3.324-2.487-5.562.801-9.168-1.146-2.114.417.244,1.724-1.147,2.865z"/>
 <path d="m35.161,189.17c2.353.061 2.294-2.29 5.157-1.719-.715,1.386-2.349,1.854-4.011,2.292 .254,2.229 2.62,2.346 4.011,3.438-1.99,1.766-3.643-1.681-5.157-2.292-2.998-.133-3.729,2.001-6.876,1.719 .504-1.598 2.302-1.9 4.011-2.292 .136-2.428-3.574-1.01-3.438-3.438 2.348-1.037 3.861,1.733 6.303,2.292z"/>
 <path d="m38.599,194.9h1.719c-.61,1.768.211,3.728-1.146,5.73-2.077.549-.583-2.473-1.719-2.865-3.184.647-6.222.386-9.168-.573 3.128-2.297 9.483,2.184 10.314-2.292z"/>
 <path d="m30.576,201.204c1.831-.964 6.938-1.039 8.022.573 .838,5.775-9.914,6.24-8.022-.573zm1.146,2.865c1.49,1.071 5.582.915 5.73-1.146-1.081-1.641-6.033-1.861-5.73,1.146z"/>
 <path d="m37.453,202.922c-.149,2.062-4.241,2.218-5.73,1.146-.304-3.006 4.648-2.786 5.73-1.146z" fill="#eff0f0"/>
 <path d="m40.891,220.114c-.09,3.545-6.034,6.186-8.022,9.74 .332-3.303 5.659-6.559 8.022-9.74z"/>
 <path d="m28.284,234.439c.997,9.965.795,21.265 1.146,30.37-2.197-7.598-.692-19.661-1.146-30.37z"/>
 <path d="m26.565,235.012c.996,10.643.726,20.027 1.146,30.369-2.484-8.021-.518-20.491-1.146-30.369z"/>
 <path d="m30.003,236.159c1.205,5.906 1.161,15.983 1.146,25.786 .442,3.158-.896,4.497-.573.572 .023-9.808-.931-15.753-.573-26.358z"/>
 <path d="m16.824,251.629c-1.682-1.334.037-8.068-.573-12.033 1.329,2.873.197,8.208.573,12.033z" fill="#eff0f0"/>
 <path d="m31.722,241.888c1.435.731 1.794-.292 2.292.573 .104,2.197-.469.207-1.719.572-.842,2.18 2.562.113 1.719,2.293-1.139-.955-.729.051-2.292,0v-3.438z"/>
 <path d="m24.273,244.18c1.017-1.529.417,3.357.573,4.584-1.016,1.529-.417-3.357-.573-4.584z" fill="#eff0f0"/>
 <path d="m31.722,245.899c1.836.871 2.021.18 4.011,0-.159,2.62-2.918.46-3.438,1.719-.487.105-.541-.223-.573-.572v-1.147z"/>
 <path d="m35.733,249.336c-1.239-1.291-1.955.475-4.011,0-.737-1.807 4.749-1.807 4.011,0z"/>
 <path d="m31.722,253.922c1.764.4 1.102.4 2.865,0-.515,1.678-.515,1.761 0,3.438-1.724.578-1.016-1.275-1.146-2.292-1.292.427-.224,3.214-.573,4.584 .01,1.71 4.247-.808 3.438,1.72-1.43-.404-2.355-.563-3.438.573 .786.806 2.36-.354 3.438.572-.072,1.267-2.431.243-3.438.573-.31,2.281 2.029-.619 1.719,2.291-.51-.444-1.294-.615-2.292-.572 .11-5.171-.644-6.396-.573-10.887z"/>
 <path d="m16.251,257.359c2.413.07.569,4.397 1.146,6.304-1.747-1.914.091-3.879-1.146-6.304z" fill="#eff0f0"/>
 <path d="m38.599 267.1c1.955 44.305 1.141 99.299 2.292 140.39-2.322-47.358-1.766-92.285-2.292-140.39z" fill="#a19589"/>
 <path d="m36.879,268.247c1.062-1.393.387,3.777.573,5.158-1.061,1.392-.386-3.778-.573-5.158z" fill="#a19589"/>
 <path d="m46.621,268.247c.666-.092 1.02.127 1.146.573-.086,33.866.67,70.278 1.146,101.425-2.438-30.166-1.094-67.805-2.292-100.279v-1.719z" fill="#a19589"/>
 <path d="m48.34,268.247c1.403,6.365.974,13.447 1.146,22.922v13.18c-1.312-.98-.21-4.374-.573-6.305v-6.303c-.921-5.97-.463-15.176-.573-23.494z" fill="#a19589"/>
 <path d="m50.059,269.394c1.153-.929.324,4.999.573,6.876-1.153.928-.323-4.999-.573-6.876z" fill="#a19589"/>
 <path d="m36.879,275.696c1.098-1.244.362,4.189.573,5.73-1.098,1.246-.361-4.189-.573-5.73z" fill="#a19589"/>
 <path d="m16.824,286.584c1.098-1.246.362,4.188.573,5.729-1.099,1.247-.362-4.189-.573-5.729z" fill="#a19589"/>
 <path d="m16.251,296.325c1.009,2.428.933,13.479-1.146,16.618 .732-5.189.855-10.987 1.146-16.618z" fill="#a19589"/>
 <path d="m41.464,295.752c1.481,11.526-.058,24.234 1.146,34.955-2.661-9.373-.392-23.675-1.146-34.955z"/>
 <path d="m37.453,298.618c1.062-1.394.387,3.776.573,5.156-1.062,1.393-.387-3.777-.573-5.156z" fill="#a19589"/>
 <path d="m37.453,305.493c1.312,4.232.209,15.832.573,22.922-1.312-4.232-.21-15.832-.573-22.922z" fill="#a19589"/>
 <path d="m48.913,306.066c2.132,16.384.407,51.418 1.719,68.19-2.318-23.304-.968-44.091-1.719-68.19z" fill="#a19589"/>
 <path d="m13.958,327.269c1.305,4.481-.248,12.326-.573,18.91-.985-5.195.851-12.516.573-18.91z" fill="#a19589"/>
 <path d="m44.902,328.987c1.571.012 1.361,2.703.573,3.438-1.266-.071-.244-2.43-.573-3.438z"/>
 <path d="m41.464,331.279c2.514.733.498,5.996 1.146,8.597-2.319-2.104-.348-4.973-1.146-8.597z"/>
 <path d="m38.025,341.021c-.947-.437-.947-4.724 0-5.157-.494,2.283.856,4.234 0,5.157z" fill="#a19589"/>
 <path d="m37.453,342.741c2.544,1.084.477,6.78 1.146,9.74-1.807-2.842.18-6.628-1.146-9.74z" fill="#a19589"/>
 <path d="m12.812,378.84c-1.556.41.41-2.701-1.146-2.291v-15.473c1.193-1.207.307,8.82.573,12.606 .131,1.854.981,3.938.573,5.158z" fill="#a19589"/>
 <path d="m38.025,363.37c1.017-1.529.417,3.356.573,4.584-1.016,1.527-.417-3.358-.573-4.584z" fill="#a19589"/>
 <path d="m38.025,371.392c1.017-1.529.417,3.356.573,4.584-1.016,1.528-.417-3.358-.573-4.584z" fill="#a19589"/>
 <path d="m47.767 371.39c0.142-0.722 1.139-0.578 1.146 0v34.379c0.46 1.959-0.854 3.271-0.573 0.572-0.134-12.613 0.345-27.725-0.573-34.951z" fill="#a19589"/>
 <path d="m35.733,374.829c3.089-.277.035,2.027 1.719,2.865-1.135,1.827-2.228-1.154-1.719-2.865z" fill="#a19589"/>
 <path d="m50.059,381.706c.955,6.879.955,17.76 0,24.641 .129-8.466-.2-17.8 0-24.641z" fill="#a19589"/>
 <path d="m14.532,398.897c1.639.078 1.048,2.389 1.146,4.01-.887-.832-1.203-2.235-1.146-4.01z" fill="#a19589"/>
 <path d="m34.587,412.077c1.253.479.252,8.141.573,11.459-1.253-.479-.252-8.141-.573-11.459z"/>
 <path d="m36.307,411.502c.967,1.766.656,5.152.573,7.449-.024.67.418,6.695-.573,2.293-.259-1.146-.933-6.445 0-9.742z"/>
 <path d="m27.711,417.805c-.74,2.699-3.752.742-6.303,2.293 .729-2.137 3.89-1.84 6.303-2.293z" fill="#eff0f0"/>
 <path d="m40.318,214.956c-2.572,7.171-13.445,11.001-16.045,20.056-2.749.115-4.308,1.422-6.303,2.292 1.267.854 4.253-1.455 6.303-1.72v5.73c1.918-.756-1.095-6.443 1.719-6.303-1.214,9.855.657,18.023 0,30.943-2.138-.943-5.617,1.084-8.022,1.719 10.979-.273 23.752-4.485 35.527-.572 1.36-2.307-.913-1.407-1.146-3.438 1.642.758 2.324-8.09-1.146-6.877 4.114-1.389-1.124-2.015 2.292-2.865 .843-2.18-2.562-.112-1.719-2.291 2.072.416 2.072-.989 0-.573 2.291-1.573 1.824-6.733-.573-9.168 3.79.925-.022-5.752 2.865-5.729-6.146-6.002-21.454-3.289-29.224-2.293 4.939-2.822 12.1-2.68 18.91-2.291 .515-5.418.926-15.682 0-22.349 3.022,3.444.983,8.662 1.146,14.326 .072,2.489 1.109,5.479.573,8.595 1.036-4.035.573-9.482.573-15.471 0-3.605-1.822-13.649 0-15.472-.292.292.573,13.286.573,15.472 0,6.314-.447,10.8.573,14.898 .66-9.647.068-18.484 0-29.798 2.261,7.884 1.162,22.112.573,30.943 2.653-6.707.397-18.321 1.146-26.932-.16-1.672.138-1.97 1.146-1.146-.737-3.209-3.59-4.651-4.011-5.157-1.611,1.279-1.305,5.512-.573,8.595-3.511-1.857-.843-10.851-1.146-18.91 2.738-3.452-1.026,3.977.573,5.157-.13-.096 1.145-8.567 1.146-8.595 .301-9.951-1.352-28.839-.573-38.965v-2.292c.303-.882.598-.036.573.573v9.741c.768,5.318.089,11.72.573,20.056 1.378-11.396.16-24.544 0-33.235 2.648,5.946.4,16.79 1.146,24.64 1.76-6.589-.085-18.323.573-27.505 1.06.086.352,1.94 1.146,2.292 2.011-.157-1.438-2.135.572-2.292 1.863-.216.215,4.145 1.146,4.584 .8-1.874.721-4.627 1.719-6.303 3.348,1.107 7.09,4.022 6.304,7.449 3.258-.188-1.715-5.142 1.719-5.157-3.083.472-3.913-2.371-5.73-4.584 16.561-.44 35.311.561 52.146-1.146-.617,2.328 1.252,6.637 2.291,9.168 6.82-12.871 10.974-28.172 9.742-47.561-2.062,4.051 1.285,13.51-1.72,16.618-2.151-3.342 2.302-3.07-1.146-4.584 3.645-4.438.554-15.509-.572-21.774-1.646,3 1.145,6.482.572,10.314-1.281-1.202-.438-4.529-1.719-5.73 1.271,14.788.363,32.962-8.022,42.404-.601-1.982 2.62-3.05.573-4.584 10.576-12.451 8.039-46.896-1.719-60.74-23.963,2.198-51.719-5.902-65.326,6.303-3.943,13.667 2.827,30.275-5.157,39.539-6.641,7.705-16.798,8.632-30.943,7.449-1.382,4.644.271,8.783-.573,13.752 10.935-.678 42.949-1.113 49.28,1.719-11.159,5.573-31.995-3.375-43.549,4.011 .704,4.262 5.193,4.739 10.314,4.584-3.353-1.041-7.789-.998-9.742-3.438 1.032-4.752 10.096-3.389 13.18-2.865 2.82.74-2.443,2.233-2.292,4.011 2.358,1.384-1.88,2.856 1.146,4.011-5.939.752-12.641.828-18.91,0-3.815-5.734-3.933-20.372-1.146-27.505 4.797.406 9.349-.812 11.46,0 1.925-6.749 2.882-11.478 3.438-18.91-1.836-3.411-4.411-10.775.573-12.033-2.139-11.943-7.694-20.565-4.584-34.955 8.571,1.885 13.882-1.123 18.91,1.719 1.062-4.392 4.996,2.719 5.73-1.719 3.252,3.371 4.876-1.691 7.449,1.719 4.221-3.227 14.244-1.59 18.335.573 1.052-4.03-1.158-8.934-3.438-11.461-12.809-.187-16.551-1.436-25.213-.573-1.8.272-2.341-.715-2.865-1.719-.769.377-1.067,1.225-1.146,2.292-.821-.897-2.987-.451-2.865-2.292-2.136,2.727-6.798,2.71-11.46,1.719-1.948-6.918-6.409-12.439-3.438-20.056 1.197-3.069 6.779-8.035 9.741-10.314 8.838-6.8 23.893-13.451 36.674-12.606 28.425,1.878 47.864,31.213 40.685,65.897 2.117.366 5.708-.742 6.876.573 16.11,17.295 22.065,57.839 5.157,80.796-5.772-.041-8.002-.297-13.18-1.146-1.461,6.026-1.904,16.001-1.72,24.067 .088,3.846 2.866,8.557-.573,10.314 3.244,3.281.661,9.895 0,14.326-5.373-.857-15.843-.202-21.201-1.146 4.588-1.333 11.648-.194 17.19-.573-3.517-3.168-14.765,1.394-17.19-2.865-.322,2.644-8.846,2.644-9.168,0-.649,4.72 5.104,1.405 8.596,2.865-2.112,2.438-6.301-.316-11.461.573 .433-17.421-.245-30.197 0-47.561-1.553-.737-2.037-.257-4.584,0-1.125,12.141-7.643,25.762-5.157,38.965 .391,2.075 2.647,4.209 2.865,6.303 .516,4.964-2.676,9.071-4.584,12.034 1.66,11.988-4.182,29.36 4.584,33.235-2.415,56.488 19.904,127.705.573,183.939-2.259.797-3.27,2.844-6.304,2.865 1.849,9.314-22.906,12.117-24.067,1.719-3.922.484-5.434-1.439-7.449-2.863-5.9-18.43-10.166-37.626-9.168-59.596 .83-18.264 2.977-36.568 4.011-56.729 1.18-22.992 1.283-44.645 1.146-68.189 2.304-.561 2.672-3.058 5.73-2.864-1.442-26.645-2.004-51.28-1.719-78.504 .028-2.631-1.407-6.994 1.719-8.595 .55,24.75 1.332,56.919.573,85.954 6.176-4.145 12.623-12.976 18.913-18.912zm70.482-71.628c-.025.609.27,1.455.572.573 5.352-10.503 11.168-23.595 9.169-39.539 .105,16.009-5.36,29.336-9.741,38.966zm-43.55-108.301c7.058,4.752 29.89-5.285 28.651,9.168-6.727,7.41-13.828,14.442-20.629,21.775 8.494-4.495 14.146-14.886 20.629-19.483-5.252,7.165-11.998,12.834-17.764,19.483 7.68-3.781 11.166-11.755 17.764-16.618-4.473,6.033-9.952,11.059-14.898,16.618 6.135-2.081 7.842-8.586 13.18-11.46-3.16,4.097-7.236,7.279-10.313,11.46 5.542-1.529 8.146-9.041 12.034-10.313-2.867,3.627-6.268,6.722-9.17,10.313 4.556-.608 6.009-7.354 9.17-7.449-1.411,2.99-6.145,5.688-6.305,8.022 2.717-.733 4.698-5.218 6.305-5.157-.562,2.113-2.51,2.839-3.438,4.584 2.222.421 4.138-3.374 2.865,0h3.438c-.44-2.16.698-2.739.572-4.584-.007-.757-1.004-.523-1.146-1.146 1.061-11.682-.752-18.725-3.438-27.505-2.555-2.575.792,3.08.573,5.157-1.968-2.965-4.86-8.62-3.438-11.46-8.233-15.08-23.098-28.699-46.99-22.921-.226.986.851,1.469 0,1.719-1.152-1.808-11.368,1.322-8.595,3.438-4.372-.729-4.784,1.902-6.876,3.438-2.872-1.139-5.675,2.719-6.876,5.157-.789.025-1.258-.27-1.719-.573 1.899,2.524-1.172,1.172-1.719,1.719s.805,3.618-1.719,1.719c1.017,2.953-3.718,2.987-4.011,7.449 .986.226 1.469-.851 1.719,0-.168.678-2.308,2.165-.573,2.865 2.923,1.546 2.903-2.15 6.303.573 1.514-1.709-.791-3.507 0-4.011 2.125,1.122 3.689,2.805 5.73,4.011 .066-1.461.108-2.948 1.719-2.865 1.143.576.904,2.534 2.865,2.292 .254-1.083-.779-3.454 1.146-2.865 2.208,3.793 5.759-.182 8.595,3.438-.086-1.423.296-2.378 1.146-2.865 1.006.904 1.189,2.631 2.865,2.865 .677-.851.496-2.56 2.292-2.292 5.155,6.422 18.276-4.629 19.483,8.022 .09-.673-.099-1.625.573-1.718zm27.505,8.595c-8.135,6.573-14.938,14.479-21.776,22.348 8.284-6.425 15.09-14.325 21.776-22.348zm-2.292-.573c-8.644,6.256-14.729,15.068-22.348,22.348 9.064-5.835 15.402-14.395 22.348-22.348zm-25.786,21.775c6.047-7.516 15.95-14.228 19.482-22.348-6.893,6.098-13.275,15.756-20.057,20.056 5.407-6.627 14.191-12.931 17.19-20.056-5.492,5.778-12.008,13.585-17.19,17.764 3.713-6.603 12.666-11.016 14.326-17.764-4.496,4.865-10.154,11.617-14.326,14.899 3.603-5.567 9.192-9.145 12.606-14.899-5.39,2.254-8.192,10.14-12.606,11.46 2.592-3.526 7.817-7.457 8.597-10.887-3.974,2.331-5.314,7.292-9.741,9.168 1.286,5.073-2.986,13.201 4.012,13.179 6.264-7.68 16.27-14.672 20.055-22.921-7.69,7.211-13.671,16.128-22.348,22.349zm-33.809-24.64c1.837.81-1.695-7.828-1.146-5.73-.604,2.897 1.306,3.278 1.146,5.73zm32.662.573c-1.076,2.203.392,5.55 0,7.449-.088,1.899-1.182,2.486.572,3.438 .293-3.919 5.93-5.52 5.157-8.595-1.741,1.887-3.188,4.07-5.157,5.73-.607-2.901 1.694-2.89 2.293-4.584-2.57,3.786-2.701-3.773-2.865-3.438zm-41.257,13.753c-.575.762-.542,2.132-1.719,2.292-.896-1.806-6.273-3.846-8.022-1.146 3.061.718-2.026,1.802-1.146,4.011 2.506.003 3.603-4.394 5.157-3.438-1.55,2.461-4.627,3.396-5.157,6.876 2.913-.537 4.093-5.823 6.303-5.157-2.241,2.343-4.174,4.994-6.303,7.449 3.369-.271 4.69-5.609 6.876-5.157-1.675,2.909-5.102,4.066-6.303,7.45 1.764.427 1.102-1.573 2.865-1.146-2.833,2.788-.336,3.901-1.146,7.45 .825,1.268 1.398-.722 1.719.573-.647.69-1.636,1.039-1.146,2.865 5.971-.433 10.171.907 16.044.573 .079-1.067.377-1.916 1.146-2.292-.174,1.337-1.223,2.469.573,2.865 .409-.791 4.473-.802 2.292-2.292-.137.623-.944,1.375-1.146.573 .338-1.189 1.103-1.953 2.292-2.292 1.755-8.941 13.625-7.768 22.92-9.168 7.383-9.208-8.747-14.609-14.898-8.595-1.544-3.56-4.957,1.465-6.303-2.292-3.77,1.125-6.377,1.044-10.314,0-1.404.762.63,2.132-.573,2.292-1.546-.557-2.224-1.98-4.011-2.294zm4.584,26.932c-3.058.772-6.479,4.205-5.73,6.876 1.587-2.615 4.574-3.831 5.73-6.876zm2.292.573c-3.28,2.153-9.576,6.468-8.022,9.742 1.761-4.161 6.284-5.56 8.022-9.742zm2.292.573c-3.512,1.65-8.46,6.817-10.888,11.46 3.918-3.532 7.967-6.932 10.888-11.46zm2.292-.573c-4.326,5.989-12.294,8.334-13.18,17.764 2.307.396 1.407-2.413 3.438-2.292-.632,2.233-3.356,2.374-3.438,5.157 5.199-5.992 14.784-9.625 13.18-20.629zm-13.752,23.494c4.914-2 9.721-8.969 13.752-13.752-.126-.447-.48-.667-1.146-.573-3.389,5.587-9.273,8.681-12.606,14.325zm13.18-11.461c-4.032,4.946-9.348,8.606-12.607,14.326 3.388-2.92 11.313-9.311 12.607-14.326zm-12.607,22.348c4.971-3.015 12.166-8.742 12.034-13.179-3.58,3.682-7.682,9.886-11.46,11.46 3.168-5.834 14.185-9.849 11.46-17.764-3.004,7.502-12.854,8.158-12.034,19.483zm2.865,0c4.261-1.774 8.507-4.855 8.596-9.741-2.275,3.837-5.99,6.235-8.596,9.741zm-.573-34.954c-.377,1.189-3.286,2.775-1.719,4.011 .235-1.331 3.639-2.422 1.719-4.011zm-8.595,36.673c2.567.084 4.904-.062 6.303-1.146-1.308.047-1.448-.058-1.719-1.146-1.844-7.402 1.853-21.026-.573-28.651-1.08,11.861 1.391,21.554-4.011,30.943zm-11.461,26.359c-1.839-2.067.582-7.786-.573-9.168-.953,2.481-1.725,9.486.573,9.168zm97.986-1.146c.5-2.792-.782-3.801-1.146-5.73-14.437-.933-25.887-.534-38.394,0-.913,1.569-1.504,3.462-1.718,5.73 1.854-.708.438,1.854 2.292,1.146-2.119-3.367.893-8.306 4.584-5.73v2.292h-2.865c.184,1.329-.092,2.2-.572,2.865 .833,1.077 3.75.069 4.584,1.146-1.309,1.635-.787,2.542-1.146,5.73-1.328-.183-2.199.092-2.865.573 .185,1.329-.092,2.2-.571,2.865 1.467.061 2.731.324 3.438,1.146v3.438c-1.578.523-3.151,1.05-3.438,2.865 .901,1.008 3.067.751 4.011,1.719-1.121,1.071-.177,2.099 0,3.438-.986.923-2.691,1.128-3.438,2.292-.104,2.205 1.607,2.594 2.865,3.438v4.011c-1.311.792-3.576.627-3.438,2.865 .244,1.857 3.853.349 4.011,2.292 .399,3.074-1.492,3.855-2.291,5.73 2.133,1.113 4.846.581 5.729-1.146 .024.789-.271,1.258-.573,1.719 10.62-1.306 16.925,3.246 23.494-3.438-.235-.977-.739.121-1.721,0 .178-1.352 1.99-1.066 1.721-2.865-2.268-.407-3.52-1.829-4.585-3.438 2.032-.47 2.01-3.336 4.585-1.719v-3.438c-1.643-1.032-4.039-1.31-5.157-2.865 1.132-1.733 4.015-1.716 5.729-2.865-2.575-.554-.856-1.437-.572-3.438-3.02-.104-4.514-1.198-3.438-4.011 1.809.281 2.022-1.033 4.012-.573 .572-3.82-2.01-4.485-4.012-5.73v-3.438c1.859.332 2.666-.39 4.012-.573v-3.438c-1.248-1.044-4.033-.551-4.586-2.292 .395-1.899 1.988-2.598 4.013-2.865-.654-1.68-.338-2.128 1.146-2.865 4.994-1.176 5.502,2.138 6.3,5.157zm-53.29,52.718c-.062-20.975 5.827-38.09 8.022-55.01-3.487,7.018-3.595,17.417-6.877,24.64 .451-9.099 4.329-14.772 4.584-24.067-1.592.7-1.67,2.913-2.864,4.011 .674.09 1.626-.098 1.719.573-3.962,14.602-8.787,34.333-6.876,50.999 .666-10.21.173-22.509 4.011-30.943-1.837,11.416-2.506,20.079-2.865,31.517 3.753,2.307 2.62,2.074 1.146-1.72zm1.719-42.403c.824-5.68 1.881-5.279 0-9.741 .104,3.879-.416,6.004 0,9.741zm13.753-4.012c.188-1.339.688-2.367 1.146-3.438h-1.72c.33,1.008-.692,3.367.574,3.438zm-12.606,40.685c-1.849,11.554 1.36.8 0,0zm1.145.573v5.73c.804-.983 1.043-7.768.573-6.303-.032.35-.086.679-.573.573zm-37.246,48.707c.609,3.965-1.109,10.699.573,12.033-.376-3.825.756-9.16-.573-12.033zm8.595,9.169c-.156-1.228.443-6.113-.573-4.584 .156,1.226-.443,6.112.573,4.584zm-7.449,14.898c-.577-1.906 1.267-6.232-1.146-6.304 1.237,2.425-.601,4.39 1.146,6.304zm23.494,143.828c-1.151-41.091-.337-96.086-2.292-140.39 .526,48.107-.03,93.034 2.292,140.39zm1.719.574c-.52-18.098-1.245-43.143 0-64.18 .088,24.947.112,40.013 1.146,64.18 1.116-32.82-1.56-72.551 0-108.302 .418,39.312.477,71.264 1.719,108.302 .704-19.145-.602-56.33 0-73.921 1.336,25.058.393,48.874 1.719,73.921-.369-43.791.674-96.128-2.292-140.393 .226,15.719 1.423,40.748 0,60.168-.444-20.143 1.16-42.707-1.719-60.168-.104,11.529 1.373,19.56 0,31.518-.548-9.078-.673-19.766-.573-32.089-3.753,8.228 1.639,20.481-1.719,27.505-.001-4.379.522-19.105-.573-27.505-.032,37.206.067,96.441 2.292,140.964zm-5.157-134.661c-.187-1.38.489-6.55-.573-5.157 .186,1.38-.489,6.55.573,5.157zm9.168-3.439c1.198,32.476-.146,70.113 2.292,100.279-.476-31.146-1.232-67.559-1.146-101.425-.126-.446-.48-.665-1.146-.573v1.719zm2.292,21.776v6.303c.363,1.931-.738,5.324.573,6.305v-13.18c-.173-9.475.257-16.557-1.146-22.922 .11,8.318-.348,17.524.573,23.494zm1.719-15.471c-.249-1.877.58-7.805-.573-6.876 .25,1.877-.58,7.804.573,6.876zm-13.179,5.156c-.211-1.541.525-6.975-.573-5.729 .211,1.54-.526,6.975.573,5.729zm-20.056,10.888c-.211-1.541.525-6.976-.573-5.729 .211,1.539-.526,6.975.573,5.729zm-2.293,20.629c2.079-3.139 2.155-14.19 1.146-16.618-.29,5.631-.413,11.429-1.146,16.618zm22.921-9.169c-.186-1.38.489-6.55-.573-5.156 .187,1.379-.488,6.549.573,5.156zm0,24.641c-.363-7.09.739-18.688-.573-22.922 .364,7.09-.738,18.69.573,22.922zm12.607,45.841c-1.312-16.771.413-51.807-1.719-68.189 .751,24.098-.599,44.885 1.719,68.189zm-37.246-28.077c.325-6.585 1.877-14.429.573-18.91 .277,6.394-1.559,13.715-.573,18.91zm24.639-10.315c-.947.436-.947,4.723 0,5.157 .856-.923-.494-2.874 0-5.157zm.574,16.617c-.669-2.96 1.398-8.656-1.146-9.74 1.326,3.112-.661,6.898 1.146,9.74zm-25.787.574c-.596-2.35 1.765-4.686 0-6.305 .508,2.137-1.601,6.784 0,6.305zm-.572,20.629c-.267-3.786.62-13.812-.573-12.605v15.471c1.556-.409-.41,2.703 1.146,2.293 .407-1.223-.443-3.307-.573-5.159zm26.359-5.73c-.156-1.228.443-6.113-.573-4.584 .155,1.226-.444,6.111.573,4.584zm0,8.022c-.156-1.228.443-6.113-.573-4.584 .155,1.226-.444,6.112.573,4.584zm9.741,30.37c-.28,2.697 1.033,1.387.573-.572v-5.158-9.74-19.482c-.007-.578-1.004-.721-1.146,0 .918,7.224.439,22.336.573,34.952zm-10.887-28.652c-1.685-.838 1.37-3.145-1.719-2.865-.51,1.711.583,4.692 1.719,2.865zm12.606,28.652c.955-6.881.955-17.762 0-24.641-.2,6.842.129,16.176 0,24.641zm-34.381-3.439c-.098-1.621.493-3.932-1.146-4.01-.057,1.775.259,3.178 1.146,4.01zm4.011,12.035c4.017-1.904 8.699-3.146 14.326-3.439-.753,3.066.466,8.031 0,12.607-1.146-.951-4.021.779-2.865,1.719 6.083-1.945 10.602.168 16.618-.574-.508-2.371-2.874-5.891-1.146-8.594 3.243-.93 5.325,2.285 7.449.572-.36-.977-1.731-.943-2.292-1.721 3.113.219.66-.992 0-1.719 1.007-.33 3.366.693 3.438-.572-1.467-.061-2.731-.324-3.438-1.146 2.159-.439 2.739.699 4.584.572-9.932-5.615-29.905-3.115-36.674,2.295zm1.719,5.156c2.551-1.551 5.563.406 6.303-2.293-2.413.453-5.574.156-6.303,2.293z"/>
 <path d="m120.541,104.363c1.999,15.943-3.817,29.035-9.169,39.539-.303.882-.598.036-.572-.573 4.381-9.631 9.846-22.958 9.741-38.966z" fill="#eff0f0"/>
 <path d="m66.677,36.746c-1.207-12.652-14.328-1.6-19.483-8.022-1.796-.268-1.615,1.441-2.292,2.292-1.676-.234-1.859-1.96-2.865-2.865-.85.487-1.232,1.442-1.146,2.865-2.836-3.62-6.387.355-8.595-3.438-1.925-.588-.892,1.782-1.146,2.865-1.961.242-1.722-1.716-2.865-2.292-1.611-.083-1.653,1.403-1.719,2.865-2.041-1.206-3.605-2.889-5.73-4.011-.791.503 1.514,2.302 0,4.011-3.4-2.723-3.38.974-6.303-.573-1.735-.701.405-2.187.573-2.865-.25-.851-.733.226-1.719,0 .293-4.462 5.028-4.497 4.011-7.449 2.524,1.899 1.172-1.172 1.719-1.719s3.618.805 1.719-1.719c.461.303.93.598 1.719.573 1.201-2.438 4.004-6.296 6.876-5.157 2.093-1.536 2.505-4.167 6.876-3.438-2.772-2.116 7.443-5.247 8.595-3.438 .851-.25-.226-.733 0-1.719 23.892-5.777 38.756,7.841 46.988,22.921-1.422,2.84 1.471,8.495 3.438,11.46 .219-2.078-3.128-7.732-.573-5.157 2.686,8.78 4.498,15.823 3.438,27.505 .143.623 1.14.389 1.146,1.146 .126,1.845-1.014,2.425-.572,4.584h-3.438c1.272-3.374-.644.421-2.865,0 .929-1.746 2.877-2.471 3.438-4.584-1.605-.061-3.588,4.424-6.305,5.157 .16-2.333 4.894-5.032 6.305-8.022-3.161.094-4.614,6.841-9.17,7.449 2.902-3.592 6.303-6.688 9.17-10.314-3.889,1.274-6.492,8.786-12.034,10.314 3.077-4.182 7.153-7.364 10.313-11.46-5.339,2.875-7.045,9.38-13.18,11.46 4.946-5.559 10.428-10.584 14.898-16.618-6.598,4.863-10.084,12.836-17.764,16.618 5.766-6.649 12.514-12.318 17.764-19.483-6.482,4.597-12.135,14.988-20.629,19.483 6.802-7.333 13.903-14.365 20.629-21.775 1.238-14.454-21.594-4.416-28.65-9.168-.671.092-.482,1.044-.572,1.718zm-25.786-19.483c.416,11.297 35.191,12.42 35.527,0-1.358-12.271-36.003-12.94-35.527,0zm-20.056,7.449c-.387-1.332-1.031-2.407-2.865-2.292 .232,1.487 1.784,1.655 2.865,2.292z" fill="#eff0f0"/>
 <path d="m89.024,42.476c-3.787,8.249-13.793,15.241-20.057,22.921-6.998.022-2.725-8.106-4.011-13.179 4.427-1.876 5.769-6.838 9.741-9.168-.778,3.43-6.006,7.361-8.596,10.887 4.412-1.321 7.217-9.207 12.605-11.46-3.414,5.754-9.005,9.332-12.605,14.899 4.17-3.282 9.828-10.034 14.326-14.899-1.66,6.748-10.613,11.161-14.326,17.764 5.183-4.179 11.697-11.985 17.189-17.764-2.999,7.125-11.783,13.429-17.189,20.056 6.779-4.3 13.164-13.958 20.056-20.056-3.532,8.12-13.437,14.833-19.482,22.348 8.679-6.222 14.66-15.139 22.349-22.349z" fill="#eff0f0"/>
 <path d="m72.407,13.825c9.089,13.214-32.63,15.896-29.797,1.719 1.464-7.33 25.071-8.59 29.797-1.719zm-4.011-1.146c-2.231,1.97-3.082,9.506 2.293,8.595 3.548-1.237 3.242-9.899-2.293-8.595zm-20.056,2.865c.183-1.329-.092-2.2-.573-2.865-1.803-.275-2.24.816-3.438,1.146v6.303c1.291-1.573 2.692-3.037 4.011-4.584zm8.596-1.719c-1.278-.632-.4-3.42-2.865-2.865 2.595,2.412-.376,9.535.573,12.034 1.467-1.016.949-4.017 2.292-5.157 2.239.816.803,5.309 4.011,5.157-1.539-3.952-4.353-8.132-.573-11.46-.245,1.582 2.137.538 2.293,1.719 1.131,1.48-1.699,7.983 1.146,9.168 1.006-2.064-.076-4.847 0-9.741h3.438c-2.068-3.326-9.861-2.781-10.315,1.145zm-8.023-2.292c.367,3.92-.1,5.699 0,10.314 1.753-.416 1.686.988 3.438.573-1.113-2.247-2.529-1.97-2.293-4.584 .424-.914 2.806.13 2.293-1.719-1.107-.612-2.343-1.096-1.72-3.438h2.292c.271-2.597-2.679-1.563-4.01-1.146z" fill="#eff0f0"/>
 <path d="m17.97,22.42c1.834-.115 2.478.96 2.865,2.292-1.081-.637-2.633-.805-2.865-2.292z"/>
 <path d="m31.722,34.454c-.549-2.098 2.983,6.54 1.146,5.73 .16-2.452-1.75-2.833-1.146-5.73z" fill="#eff0f0"/>
 <path d="m68.396,44.195c-.598,1.694-2.899,1.683-2.291,4.584 1.97-1.66 3.414-3.843 5.156-5.73 .771,3.075-4.865,4.676-5.156,8.595-1.754-.952-.662-1.539-.573-3.438 .392-1.899-1.076-5.246 0-7.449 .162-.335.293,7.224 2.864,3.438z" fill="#eff0f0"/>
 <path d="m28.284,56.802c1.203-.16-.831-1.53.573-2.292 3.937,1.044 6.545,1.125 10.314,0 1.347,3.757 4.759-1.268 6.303,2.292 6.151-6.014 22.281-.613 14.898,8.595-9.296,1.4-21.165.228-22.92,9.168-1.189.339-1.954,1.103-2.292,2.292 .202.803 1.009.05 1.146-.573 2.181,1.49-1.883,1.501-2.292,2.292-1.796-.396-.747-1.528-.573-2.865-.769.377-1.067,1.225-1.146,2.292-5.873.333-10.073-1.006-16.044-.573-.49-1.827.499-2.175 1.146-2.865-.321-1.294-.894.695-1.719-.573 .81-3.548-1.688-4.662 1.146-7.45-1.764-.427-1.101,1.573-2.865,1.146 1.201-3.383 4.628-4.541 6.303-7.45-2.186-.452-3.507,4.886-6.876,5.157 2.129-2.455 4.062-5.106 6.303-7.449-2.21-.666-3.39,4.621-6.303,5.157 .53-3.481 3.607-4.415 5.157-6.876-1.555-.955-2.651,3.442-5.157,3.438-.88-2.209 4.207-3.293 1.146-4.011 1.749-2.7 7.126-.66 8.022,1.146 1.177-.16 1.144-1.53 1.719-2.292 1.787.316 2.465,1.739 4.011,2.294zm-8.595,9.168c1.122-.506 5.302-3.082 2.865-3.438 .098,2.199-2.964,1.239-2.865,3.438z" fill="#eff0f0"/>
 <path d="m22.554,62.532c2.438.356-1.743,2.932-2.865,3.438-.099-2.199 2.963-1.239 2.865-3.438z"/>
 <path d="m105.64 70.554c-6.31 5.535-11.91 11.776-17.765 17.764 0.284-1.828 3.613-5.545 6.304-6.876 3.498-4.178 7.699-10.588 12.605-11.46-4.204 8.976-13.188 13.172-18.337 21.202 2.798-7.519 13.157-12.437 17.193-20.63z"/>
 <path d="m106.22 73.993c-2.233 5.79-10.712 10.297-14.325 16.617 1.912-6.113 10.168-10.84 14.325-16.617z"/>
 <path d="m45.475,78.004c2.483-1.241 4.5-4.2 8.595-3.438 7.158,1.332 7.407,14.157-.573,14.898-6.023.559-8.984-5.602-8.022-11.46zm2.865,8.022c5.016,5.875 12.89-2.866 8.596-8.595-1.37.349-4.157-.719-4.584.573 2.026.193 2.952.033 3.438.573-6.579.803-1.41,1.453-5.73,2.292-.349,1.37.72,4.158-.572,4.584 .605-7.911-2.387-.879-1.148.573z"/>
 <path d="m97.047,75.139c.017-.558.701-.445 1.146-.573-4.27,4.899-9.148,9.188-13.18,14.326 1.487-4.821 8.09-9.483 12.034-13.753z"/>
 <path d="m107.94 76.857c-4.389 4.207-9.184 8.007-12.605 13.18-1.678-2.214 3.271-4.99 5.729-7.449s5.088-6.895 6.876-5.731z"/>
 <path d="m49.486,85.453c1.292-.427.224-3.214.572-4.584 4.32-.839-.849-1.489 5.73-2.292-.485-.54-1.411-.379-3.438-.573 .427-1.292 3.214-.224 4.584-.573 4.294,5.729-3.58,14.47-8.596,8.595-1.237-1.452 1.755-8.484 1.148-.573z" fill="#eff0f0"/>
 <path d="m107.94 78.004c1.115 1.339-1.748 3.575-3.438 4.011-1.303 2.425-5.573 7.663-6.876 6.303 3.814-3.061 6.955-6.796 10.314-10.314z"/>
 <path d="m33.441,86.026c.016-.557.701-.445 1.146-.573-3.321,4.319-7.325,7.955-10.887,12.033 .724-4.056 7.137-7.376 9.741-11.46z"/>
 <path d="m34.587,88.318c-.084-.322-3.391,5.672-6.303,6.303 1.862-2.341 3.963-4.442 6.303-6.303z"/>
 <path d="m101.631,98.06c.269-1.796-1.44-1.615-2.292-2.292 .795-1.307 3.988-.214 5.73-.573-.023,8.572.313,17.505-1.146,24.64-15.789,1.227-32.003.399-48.707,0-1.571-8.35.191-17.016 0-24.64 2.488-.95 6.949.073 8.596-1.719 1.186,1.972-4.691,1.785-5.157,4.011 8.604-5.883 34.078-9.123 42.976.573zm-3.439-.574c.351.033.679.086.572.573-.695,1.596-1.178,3.406-2.291,4.584-.851-.487-1.231-1.442-1.146-2.865 .816-.223.966-.688 1.719,0 .02-3.858-1.113-.984-1.719-4.584-2.139-.609-.907,2.149-2.865,1.719-.312-.833.669-2.962-.572-2.865-1.313.215-.765,2.292-1.72,2.865-2.587-.223.64-2.7-1.146-3.438-.318,2.957-1.344-.636-2.293-.573-.277.677-.61,1.299-1.146,1.719-1.321.176-.637-1.655-1.72-1.719-.575.762-.542,2.132-1.719,2.292-.852-1.68.646-2.128-1.146-2.865-.671.857-.712,2.344-1.719,2.865-.575-.762-.543-2.132-1.719-2.292-.242,1.096-.209,2.466-1.721,2.292 .16-1.306-.138-2.154-1.146-2.292-.563,2.688-1.361,2.159-3.438,1.146 .074,1.029-.568,1.341-1.719,1.146 .301,1.464.76,2.006-.573,2.865-.573-.763-.944-1.729-1.719-2.292-.396,2.186 2.329,2.759.573,4.584 2.479-.872 3.092,2.618 1.146,2.865-1.513-2.308-2.479-5.16-4.584-6.876 1.063,2.967 2.933,4.771 2.865,7.449 .063-.699.171-1.356 1.146-1.146 1.619,3.34-3.901,6.512-2.865,9.168 2.275-2.022 3.377-10.364 6.305-8.022 .12-2.794-2.55-2.798-2.292-5.73 .731-.032.793-.734 1.719-.573-.963,3.064 1.718,2.485 1.72,4.584-.484,1.575-1.598,4.419-3.438,2.865 .892,6.015-4.608,10.175-9.741,12.034 10.771-4.854 30.518-4.896 40.686-1.146-1.916-.503-.604-1.816.572-.573-.357-1.361-.771-2.667-2.293-2.865-.098.857.205,2.115-.572,2.292-.644-.122-.893-.636-1.146-1.146 .878-.688 3.091-2.972 1.72-4.011-.943.966-1.244,2.575-2.293,3.438-.479-.665-.756-1.536-.572-2.865 3.789,1.896-.821-3.271 2.865-2.865-.733,1.581 1.67,2.803 1.719,1.719-2.355-.956 2.082-2.757 0-3.438-.611.534-.178,2.114-1.719,1.719-.584-2.848 1.186-2.452 1.719-2.865-1.903-1.144 2.72-4.216-.572-5.157 .914,2.114-1.004,4.156-2.292,5.73-1.627-2.655 1.864-4.437 2.292-6.876-.588.066-1.161-2.473-1.722-.574zm-33.234,10.315c.543-1.039.71-3.354 2.292-1.719-1.336-2.841-3.177-6.353-4.584-7.45 1.535,3.253 3.437,6.149 2.292,9.169zm-2.865,4.584c.611-.534.178-2.113 1.719-1.719 .271-1.117-1.541-2.931-1.719-1.719 2.356.955-2.081,2.758 0,3.438z"/>
 <path d="m99.912,98.06c-.427,2.439-3.919,4.221-2.292,6.876 1.288-1.574 3.206-3.616 2.292-5.73 3.292.941-1.331,4.014.573,5.157-.534.413-2.303.017-1.721,2.865 1.541.395 1.107-1.185 1.721-1.719 2.08.681-2.356,2.482 0,3.438-.051,1.084-2.453-.139-1.721-1.719-3.687-.406.926,4.761-2.863,2.865-.185,1.329.092,2.2.572,2.865 1.047-.863 1.348-2.472 2.291-3.438 1.371,1.04-.841,3.323-1.719,4.011 .254.51.503,1.024 1.146,1.146 .777-.177.475-1.435.572-2.292 1.521.198 1.935,1.504 2.291,2.865-1.175-1.243-2.486.07-.572.573-10.168-3.751-29.914-3.708-40.685,1.146 5.132-1.859 10.632-6.019 9.741-12.034 1.841,1.555 2.953-1.29 3.438-2.865 0-2.1-2.682-1.521-1.719-4.584-.926-.161-.986.542-1.719.573-.258,2.932 2.412,2.936 2.292,5.73-2.927-2.341-4.028,6-6.304,8.022-1.037-2.657 4.484-5.828 2.865-9.168-.976-.21-1.082.447-1.146,1.146 .066-2.679-1.803-4.482-2.865-7.449 2.104,1.716 3.071,4.568 4.584,6.876 1.946-.248 1.334-3.737-1.146-2.865 1.757-1.825-.969-2.398-.572-4.584 .773.562 1.145,1.529 1.719,2.292 1.333-.859.874-1.401.573-2.865 1.149.195 1.793-.117 1.719-1.146 2.076,1.013 2.874,1.542 3.438-1.146 1.008.138 1.306.986 1.146,2.292 1.513.174 1.479-1.196 1.72-2.292 1.178.16 1.145,1.53 1.72,2.292 1.007-.521 1.048-2.008 1.719-2.865 1.794.737.296,1.185 1.146,2.865 1.178-.16 1.145-1.53 1.72-2.292 1.083.063.397,1.895 1.72,1.719 .534-.42.867-1.042 1.146-1.719 .947-.063 1.974,3.529 2.291.573 1.785.738-1.439,3.216 1.146,3.438 .955-.573.405-2.65 1.719-2.865 1.242-.097.26,2.032.573,2.865 1.958.43.728-2.328 2.865-1.719 .604,3.6 1.737.726 1.719,4.584-.753-.688-.901-.223-1.719,0-.086,1.423.296,2.378 1.146,2.865 1.114-1.178 1.598-2.988 2.293-4.584 .104-.487-.224-.541-.572-.573 .56-1.899 1.133.64 1.719.574zm-5.729-1.146c-.875.821-.559,2.987 1.146,2.865 .083-1.422.106-2.781-1.146-2.865zm-1.147,2.292c-1.709.99.82,3.542-.573,4.011-.065-.699-.172-1.357-1.146-1.146-.516,1.677-.516,1.76 0,3.438-.817-.224-.967-.688-1.719,0-.086,1.423.295,2.378 1.146,2.865 .163-3.192 5.459-6.348 2.292-9.168zm-1.721-2.292c-.908.856-.838,3.267 1.146,2.865 .086-1.422.108-2.781-1.146-2.865zm2.293,10.887c.48-.665.756-1.536.572-2.865-2.322-.334-1.818,2.357-.572,2.865zm1.72-2.292c-.235-1.381 1.046-1.246.573-2.865-.733-.031-.795-.734-1.721-.573-.609,1.556-.363,2.683 1.148,3.438zm.573-.573c.254,1.083-.78,3.454 1.146,2.865 .37-1.396 1.157-2.947-1.146-2.865zm-1.146,2.292c-.249,1.274-1.316,3.107.573,3.438 .248-1.274 1.318-3.107-.573-3.438zm-1.147,2.865c-.48.665-.756,1.537-.572,2.865 2.106.552 2.277-2.815.572-2.865zm-21.774-1.719c-1.938-1.491-3.94,4.269-3.438,5.157 1.822-2.38 4.461-3.945 4.584-8.022-2.303-.083-1.516,1.47-1.146,2.865zm2.292-2.292c.438-1.464.844-2.635-.572-3.438-.789.734-.998,3.426.572,3.438zm-1.719-8.022c.908-.856.838-3.267-1.146-2.865-.084,1.421-.108,2.78 1.146,2.865zm3.438,5.157v-2.865c-3.52,1.831.59-2.835-2.865-2.865-1.07,1.936 1.154,4.745 2.865,5.73zm.573-.573c-1.122,1.071-.177,2.099 0,3.438-.731-.032-.794-.735-1.719-.573-.401,1.764-.401,1.101 0,2.865 1.704-.551 4.302-4.484 1.719-5.73zm-2.864,5.157c-.369,1.396-1.158,2.948 1.146,2.865 .083-1.421.106-2.781-1.146-2.865zm5.156.573c-.128-1.083.646-1.265.573-2.292-.732-.032-.794-.735-1.72-.573-.084,1.421-.106,2.781 1.147,2.865zm-4.011-13.753c-.978.925-.525,2.954.573,3.438 .788-.734.999-3.426-.573-3.438zm6.876,13.753c.48-.665.756-1.537.572-2.865-2.254.726-1.703-1.352-1.719-2.865-2.304.776-1.517.178-1.146-1.719-2.237-.76-2.421.408-1.72-2.865-.731-.032-.793-.734-1.72-.573 .512,5.029 4.042,7.039 5.733,10.887zm1.719-2.292c.002-1.864 1.202-3.087-1.146-3.438 .009,1.519-.318,3.374 1.146,3.438zm4.012-8.596c.78-.729.885-2.807-.572-2.865-.91.858-.422,2.344.572,2.865zm-6.875,2.866v-2.292c-1.478-.386-1.992.105-1.721-2.865-3.213.088.029,4.696 1.721,5.157zm1.144,2.865c.438-1.464.844-2.635-.573-3.438-.978.924-.524,2.953.573,3.438zm0-5.157c-.129-1.083.646-1.265.572-2.292-.731-.032-.793-.735-1.719-.573-.083,1.421-.107,2.78 1.147,2.865zm7.449,2.292c.438-1.464.845-2.635-.573-3.438-.248,1.274-1.316,3.107.573,3.438zm-4.584,2.292c.781-.73.885-2.807-.573-2.865-.78.729-.886,2.806.573,2.865zm-1.146-5.158c-2.066-.099-2.066,2.964 0,2.865v-2.865zm2.865,2.866c-.129-1.083.646-1.264.572-2.292-.731-.032-.793-.734-1.719-.573-.911.861.016,2.412 1.147,2.865zm.572,2.292c2.336-.169 1.645-2.541 0-2.865v2.865zm4.012,0c-.128-1.083.646-1.264.572-2.292-.731-.031-.793-.734-1.719-.573-.081,1.421-.105,2.781 1.147,2.865zm-4.584,2.865c.175-1.337 1.224-2.469-.572-2.865-.781.73-.886,2.807.572,2.865zm2.865,0c.442-.392 1.492-3.414-.573-2.865-.908.857-.423,2.343.573,2.865zm-6.877,2.865c-.16,1.306.139,2.154 1.146,2.292 .297-1.996 2.299-2.286 1.721-5.157-2.555-.645.348,4.169-2.867,2.865zm5.732,0c-.129-1.083.646-1.265.572-2.292-.732-.032-.793-.735-1.72-.573-.084,1.421-.105,2.781 1.148,2.865zm4.584,2.292c.438-1.464.845-2.635-.573-3.438-.787.735-.996,3.426.573,3.438zm-12.032,0c.334-1.361.877-2.668-1.146-2.865-.656,1.68-.341,2.128 1.146,2.865zm9.168,0c.334-1.361.877-2.668-1.146-2.865-.337,1.361-.879,2.667 1.146,2.865zm-12.036,0c-.051-1.563.955-1.153 0-2.292-2.207-.452-2.207,2.743 0,2.292z" fill="#eff0f0"/>
 <path d="m72.979,105.509c-.125,4.078-2.763,5.642-4.584,8.022-.502-.888 1.5-6.648 3.438-5.157-.369-1.395-1.156-2.948 1.146-2.865z"/>
 <path d="m72.979,97.486c3.455.03-.654,4.696 2.864,2.865v2.865c-1.709-.984-3.933-3.793-2.864-5.73z"/>
 <path d="m74.699,108.374c-.401-1.764-.401-1.102 0-2.865 .925-.162.985.542 1.719.573-.177-1.34-1.122-2.368 0-3.438 2.583,1.246-.015,5.179-1.719,5.73z"/>
 <path d="m75.845,97.486c.926-.161.987.542 1.721.573-.701,3.273-.52,2.105 1.719,2.865-.37,1.897-1.157,2.495 1.146,1.719 .014,1.514-.535,3.591 1.719,2.865 .183,1.329-.092,2.2-.573,2.865-1.693-3.847-5.223-5.857-5.732-10.887z"/>
 <path d="m78.71,95.194c-.271,2.971.243,2.479 1.721,2.865v2.292c-1.692-.46-4.934-5.068-1.721-5.157z"/>
 <path d="m62.666,98.632c1.407,1.097 3.248,4.608 4.584,7.45-1.582-1.635-1.749.68-2.292,1.719 1.145-3.02-.757-5.916-2.292-9.169z" fill="#eff0f0"/>
 <path d="m90.743,108.374c-.85-.487-1.23-1.442-1.146-2.865 .754-.688.901-.224 1.719,0-.515-1.678-.515-1.761 0-3.438 .976-.211 1.082.447 1.146,1.146 1.395-.469-1.136-3.021.573-4.011 3.168,2.82-2.128,5.976-2.292,9.168z"/>
 <path d="m34.015 99.778c-1.13 4.223-7.404 8.256-10.314 12.606 1.092-4.259 7.578-8.079 10.314-12.606z"/>
 <path d="m85.015,105.509c.578,2.871-1.424,3.161-1.721,5.157-1.008-.138-1.307-.986-1.146-2.292 3.214,1.304.311-3.51 2.867-2.865z"/>
 <path d="m62.093,108.947c.178-1.211 1.99.602 1.719,1.719-1.541-.395-1.106,1.185-1.719,1.719-2.081-.68 2.356-2.483 0-3.438z" fill="#eff0f0"/>
 <path d="m96.474,138.171c-1.482.737-1.8,1.185-1.146,2.865-2.024.268-3.618.966-4.013,2.865 .553,1.741 3.338,1.248 4.586,2.292v3.438c-1.346.183-2.151.905-4.012.573v3.438c2.002,1.245 4.584,1.91 4.012,5.73-1.988-.46-2.203.854-4.012.573-1.076,2.813.418,3.908 3.438,4.011-.284,2.001-2.003,2.884.572,3.438-1.717,1.149-4.599,1.132-5.729,2.865 1.118,1.556 3.515,1.833 5.157,2.865v3.438c-2.575-1.617-2.553,1.25-4.585,1.719 1.065,1.609 2.317,3.031 4.585,3.438 .271,1.799-1.543,1.514-1.721,2.865 .98.121 1.484-.977 1.721,0-6.569,6.684-12.874,2.132-23.494,3.438 .303-.461.598-.93.572-1.719-.885,1.727-3.598,2.26-5.729,1.146 .8-1.875 2.691-2.657 2.292-5.73-.158-1.943-3.767-.435-4.011-2.292-.138-2.238 2.128-2.074 3.438-2.865v-4.011c-1.258-.844-2.97-1.233-2.865-3.438 .746-1.164 2.451-1.369 3.438-2.292-.177-1.339-1.121-2.368 0-3.438-.941-.968-3.109-.711-4.011-1.719 .286-1.815 1.86-2.342 3.438-2.865v-3.438c-.707-.822-1.972-1.085-3.438-1.146 .479-.665.756-1.537.571-2.865 .666-.481 1.537-.756 2.865-.573 .359-3.188-.16-4.095 1.146-5.73-.834-1.077-3.751-.069-4.584-1.146 .48-.665.756-1.537.572-2.865h2.865v-2.292c-3.691-2.576-6.703,2.363-4.584,5.73-1.854.708-.438-1.854-2.292-1.146 .214-2.268.804-4.161 1.718-5.73 12.507-.534 23.957-.933 38.394,0 .363,1.929 1.646,2.938 1.146,5.73-.796-3.019-1.304-6.333-6.3-5.157z" fill="#eff0f0"/>
 <path d="m34.587 138.74c-1.467 2.208-7.88 9.276-12.034 12.606 3.557-4.657 7.171-9.256 12.034-12.606z"/>
 <path d="m25.419,138.744c.975.828-1.796,2.755-2.292,4.011-1.621-1.474 2.077-2.474 2.292-4.011z"/>
 <path d="m28.284,138.744c.648,2.381-3.976,4.417-5.157,6.876-.835-2.568 3.863-4.53 5.157-6.876z"/>
 <path d="m30.576,139.317c.798,2.152-3.567,4.06-4.584,6.303-.785-2.139 3.134-4.493 4.584-6.303z"/>
 <path d="m48.34,197.766c.359-11.438 1.028-20.101 2.865-31.517-3.838,8.434-3.346,20.733-4.011,30.943-1.91-16.666 2.915-36.397 6.876-50.999-.093-.671-1.045-.483-1.719-.573 1.194-1.098 1.272-3.311 2.864-4.011-.255,9.294-4.133,14.968-4.584,24.067 3.282-7.224 3.39-17.622 6.877-24.64-2.195,16.92-8.084,34.036-8.022,55.01 1.474,3.794 2.607,4.027-1.146,1.72z" fill="#eff0f0"/>
 <path d="m51.205,143.901c1.881,4.462.824,4.061 0,9.741-.416-3.736.104-5.861 0-9.741z" fill="#eff0f0"/>
 <path d="m38.025,177.137c-1.266,1.79-7.014-.902-7.449,1.719 1.594-1.412 7.303,6.004 8.022,0 5.871,5.593 4.755,28.019-3.438,28.651-11.031.851-12.543-36.731 2.865-30.37zm.574,24.639c-1.084-1.611-6.191-1.537-8.022-.573-1.893,6.814 8.859,6.349 8.022.573zm-9.742-14.898c-.136,2.428 3.574,1.01 3.438,3.438-1.709.392-3.507.695-4.011,2.292 3.147.282 3.878-1.852 6.876-1.719 1.514.611 3.167,4.058 5.157,2.292-1.392-1.092-3.757-1.209-4.011-3.438 1.663-.438 3.296-.906 4.011-2.292-2.863-.571-2.805,1.779-5.157,1.719-2.441-.559-3.954-3.329-6.303-2.292zm2.292-3.438c3.606,1.947 5.844-1.341 9.168,1.146 .162-4.747-8.383-.786-10.888-2.865-.079.993-1.863,4.694.573,4.584 1.392-1.141-.966-2.448 1.147-2.865zm-2.865,13.752c2.947.959 5.984,1.221 9.168.573 1.136.392-.358,3.414 1.719,2.865 1.357-2.002.536-3.962 1.146-5.73h-1.719c-.83,4.476-7.185-.005-10.314,2.292z" fill="#eff0f0"/>
 <path d="m52.352,190.316c1.36.8-1.849,11.554 0,0z" fill="#eff0f0"/>
 <path d="m54.07,190.316c.47-1.465.23,5.32-.573,6.303v-5.73c.487.106.541-.223.573-.573z" fill="#eff0f0"/>
 <path d="m40.318 217.82c-2.331 3.164-9.08 12.844-12.034 13.752 1.208-0.371 2.75-4.398 3.438-5.156 2.799-3.083 5.699-4.647 8.596-8.596z"/>
 <path d="m40.891,222.979c.3,2.414-4.263,4.896-5.73,7.449-.079-2.192 3.919-5.24 5.73-7.449z"/>
 <path d="m12.812,346.75c1.765,1.619-.596,3.955 0,6.305-1.601.479.508-4.168 0-6.305z" fill="#a19589"/>
 <path d="m56.362,412.649c-1.845.125-2.425-1.014-4.584-.572 .706.82 1.971,1.084 3.438,1.145-.071,1.268-2.431.244-3.438.574 .66.727 3.113,1.938 0,1.719 .561.775 1.932.742 2.292,1.721-2.124,1.711-4.206-1.502-7.449-.574-1.728,2.703.638,6.223 1.146,8.596-6.016.742-10.535-1.371-16.618.572-1.156-.938 1.719-2.67 2.865-1.719 .466-4.574-.753-9.539 0-12.605-5.627.293-10.309,1.533-14.326,3.438 6.77-5.412 26.743-7.912 36.674-2.295zm-21.201,10.887c-.321-3.318.68-10.98-.573-11.459 .32,3.318-.681,10.98.573,11.459zm1.146-2.291c.991,4.402.549-1.623.573-2.293 .083-2.297.395-5.686-.573-7.449-.933,3.296-.259,8.595 0,9.742z" fill="#eff0f0"/>
 <path d="m44.329,20.128v-6.303c1.198-.33 1.636-1.421 3.438-1.146 .481.665.755,1.536.573,2.865-1.319,1.547-2.72,3.011-4.011,4.584z"/>
 <path d="m22.554,102.644c.082-2.783 2.807-2.924 3.438-5.157-2.031-.121-1.132,2.688-3.438,2.292 .885-9.429 8.854-11.775 13.18-17.764 1.603,11.004-7.982,14.637-13.18,20.629zm1.146-5.158c3.562-4.078 7.566-7.714 10.887-12.033-.445.128-1.13.016-1.146.573-2.604,4.084-9.017,7.404-9.741,11.46zm4.584-2.865c2.913-.631 6.219-6.625 6.303-6.303-2.34,1.861-4.441,3.962-6.303,6.303z" fill="#eff0f0"/>
 <path d="m33.441,174.845c13.771-1.999 12.28,32.962 1.719,33.808-11.841.949-13.172-32.146-1.719-33.808zm1.72,32.662c8.193-.632 9.309-23.059 3.438-28.651-.719,6.004-6.428-1.412-8.022,0 .435-2.621 6.184.071 7.449-1.719-15.409-6.361-13.897,31.221-2.865,30.37z"/>
 <path d="m31.722,237.877c1.139.955.729-.053 2.292,0v3.438h-2.292v-3.438z"/>
 <path d="m40.318,267.102c1.095,8.398.571,23.126.573,27.505 3.358-7.022-2.034-19.276 1.719-27.505-.101,12.324.025,23.011.573,32.089 1.373-11.958-.104-19.987 0-31.517 2.879,17.459 1.275,40.023 1.719,60.168 1.423-19.422.226-44.45 0-60.168 2.966,44.264 1.923,96.601 2.292,140.391-1.326-25.046-.382-48.863-1.719-73.92-.602,17.591.704,54.777 0,73.92-1.242-37.037-1.301-68.988-1.719-108.301-1.56,35.751 1.116,75.48 0,108.301-1.034-24.166-1.058-39.23-1.146-64.18-1.245,21.037-.52,46.082 0,64.18-2.225-44.523-2.324-103.758-2.292-140.963zm2.292,63.606c-1.204-10.721.335-23.429-1.146-34.955 .754,11.279-1.515,25.581 1.146,34.955zm2.865,1.718c.788-.735.998-3.428-.573-3.438 .329,1.007-.693,3.366.573,3.438zm-2.865,7.449c-.648-2.601 1.368-7.862-1.146-8.597 .798,3.625-1.173,6.494 1.146,8.597z" fill="#a19589"/>
</svg>
