<?xml version="1.0" encoding="UTF-8"?>
<svg viewBox="0 0 640 480" xmlns="http://www.w3.org/2000/svg">
 <g stroke-linecap="round" stroke-linejoin="round">
  <g stroke-width="10">
   <path d="m22.372 78.097c21.909-31.358 60.565-50.313 98.358-43.81 47.105 8.1049 82.767 52.114 83.304 101.79l272.54 126.06c21.876-20.614 53.261-31.025 83.656-25.795 37.793 6.5027 67.563 37.748 77.732 74.625l-2.7095 2.1118-103.41-18.635-44.898 39.898 28.899 51.214 104.11 18.579 1.1213 2.9043c-21.909 31.358-60.695 50.593-98.488 44.091-47.105-8.1049-82.228-52.546-82.765-102.22l-272.11-125.52c-21.876 20.614-54.123 29.947-84.519 24.717-37.793-6.5027-66.247-35.44-76.416-72.318l-0.7843-3.3834 106.15 17.858 44.079-39.596-28.225-51.201-103.69-18.764-1.9407-2.6022z"/>
   <path d="m31.075 81.941c21.254-30.421 56.914-47.679 93.578-41.371 45.697 7.8627 77.72 49.7 78.241 97.89l266.97 123.15c21.222-19.998 50.058-30.181 79.545-25.108 36.664 6.3083 64.539 34.506 74.404 70.282l-0.4324-0.5668-100.97-17.388-45.523 40.107 29.479 52.988 100.98 17.354 0.585-0.3833c-21.254 30.421-56.914 47.679-93.578 41.371-45.697-7.8627-77.72-49.7-78.241-97.89l-266.97-123.15c-21.222 19.998-50.058 30.181-79.545 25.108-36.664-6.3084-64.539-34.506-74.404-70.282l0.4324 0.5669 100.97 17.388 45.523-40.107-29.495-52.955-100.97-17.388-0.585 0.3832z"/>
  </g>
  <path d="m22.372 78.097c21.909-31.358 60.565-50.313 98.358-43.81 47.105 8.1049 82.767 52.114 83.304 101.79l272.54 126.06c21.876-20.614 53.261-31.025 83.656-25.795 37.793 6.5027 67.563 37.748 77.732 74.625l-2.7095 2.1118-103.41-18.635-44.898 39.898 28.899 51.214 104.11 18.579 1.1213 2.9043c-21.909 31.358-60.695 50.593-98.488 44.091-47.105-8.1049-82.228-52.546-82.765-102.22l-272.11-125.52c-21.876 20.614-54.123 29.947-84.519 24.717-37.793-6.5027-66.247-35.44-76.416-72.318l-0.7843-3.3834 106.15 17.858 44.079-39.596-28.225-51.201-103.69-18.764-1.9407-2.6022z" stroke="#000" stroke-width="8.431"/>
  <path d="m31.075 81.941c21.254-30.421 56.914-47.679 93.578-41.371 45.697 7.8627 77.72 49.7 78.241 97.89l266.97 123.15c21.222-19.998 50.058-30.181 79.545-25.108 36.664 6.3083 64.539 34.506 74.404 70.282l-0.4324-0.5668-100.97-17.388-45.523 40.107 29.479 52.988 100.98 17.354 0.585-0.3833c-21.254 30.421-56.914 47.679-93.578 41.371-45.697-7.8627-77.72-49.7-78.241-97.89l-266.97-123.15c-21.222 19.998-50.058 30.181-79.545 25.108-36.664-6.3084-64.539-34.506-74.404-70.282l0.4324 0.5669 100.97 17.388 45.523-40.107-29.495-52.955-100.97-17.388-0.585 0.3832z" fill="#fff" stroke-width="10"/>
  <g fill="#fff" stroke="#000">
   <path d="m377.65 187.48l8.6484 9.2222-232.78 207.3-7.1583 14.429-34.281 22.638-9.6139-10.252 26.294-31.156 16.111-4.8822 232.78-207.3z" stroke-width="8"/>
   <path d="m517.2 13s53.964 8.7209 59.962 63.94l-140.27 119.58c-20.828 4.185-35.208 11.029-44.902 19.661-8.6902 7.7387-21.325 35.076-21.325 35.076l-49.362-52.637s28.431-11.158 36.781-18.594c9.1458-8.6658 16.958-22.94 22.92-42.945l136.2-124.08z" stroke-width="8.065"/>
  </g>
 </g>
</svg>
